<?xml version="1.0" encoding="utf-8"?>
<!-- Generator: Adobe Illustrator 26.0.2, SVG Export Plug-In . SVG Version: 6.00 Build 0)  -->
<svg version="1.1" id="Layer_1" xmlns="http://www.w3.org/2000/svg" xmlns:xlink="http://www.w3.org/1999/xlink" x="0px" y="0px"
	 viewBox="0 0 382 348" style="enable-background:new 0 0 382 348;" xml:space="preserve">
<style type="text/css">
	.st0{fill:#E30613;}
	.st1{fill:#FFFFFF;}
	.st2{fill-rule:evenodd;clip-rule:evenodd;fill:#004A93;}
	.st3{fill:#009FE3;}
</style>
<g>
	<path class="st0" d="M95.63,63.82c-14.11,18.43-23.17,40.92-25.12,65.42H95.6L95.63,63.82z"/>
	<path class="st0" d="M95.65,152.19h25.09l0-23.08v0.12H95.6v22.95H70.79c2.52,24.21,12,46.34,26.4,64.38
		c-1.03-2.92-1.59-6.06-1.59-9.33L95.65,152.19z"/>
	<path class="st0" d="M123.66,235.3c-3.63,0-7.1-0.7-10.29-1.95c21.72,18.66,49.96,29.95,80.84,29.95c30,0,57.52-10.65,78.97-28.37
		c-1.48,0.24-3,0.37-4.55,0.37H123.66z"/>
	<path class="st0" d="M255.71,152.41H120.74v47.37c0,6.74,5.46,12.2,12.2,12.2h122.77c8.76,0,15.86-7.1,15.86-15.86v-27.85
		C271.57,159.51,264.46,152.41,255.71,152.41z"/>
	<path class="st0" d="M268.64,129.09c15.5,0,28.06,12.56,28.06,28.06v50.09c0,0.7-0.03,1.39-0.08,2.07
		c13.69-19.95,21.7-44.1,21.7-70.12c0-68.54-55.56-124.1-124.1-124.1c-27.5,0-52.9,8.95-73.47,24.08l0,89.91H268.64z"/>
	<path class="st1" d="M95.6,129.24H70.51c-0.26,3.28-0.4,6.6-0.4,9.96c0,4.39,0.23,8.73,0.68,13H95.6V129.24z"/>
	<path class="st1" d="M296.62,209.32c0.05-0.69,0.08-1.38,0.08-2.07v-50.09c0-15.5-12.56-28.06-28.06-28.06H120.75v0.02l0,23.08
		H95.65l-0.05,55.05c0,3.27,0.57,6.41,1.59,9.33c4.86,6.09,10.28,11.7,16.18,16.78c3.19,1.26,6.65,1.95,10.29,1.95h144.98
		c1.55,0,3.07-0.13,4.55-0.37C282.14,227.54,290.03,218.91,296.62,209.32z M271.57,196.12c0,8.76-7.1,15.86-15.86,15.86H132.94
		c-6.74,0-12.2-5.46-12.2-12.2v-47.37h134.97c8.76,0,15.86,7.1,15.86,15.86V196.12z"/>
	<path class="st1" d="M120.75,129.24v-0.12v-0.02l0,0l0-89.91c-9.49,6.99-17.95,15.29-25.12,24.64l-0.03,65.42H120.75z"/>
	<polygon class="st1" points="120.75,129.12 120.75,129.09 120.75,129.09 	"/>
</g>
<path class="st2" d="M33.18,320.64h12.34c4.41,0,7.59-0.76,9.55-2.28c2.01-1.57,3.01-4.07,3.01-7.49v-7.94
	c0-3.18-1.03-5.61-3.09-7.27c-2.06-1.67-5.22-2.5-9.48-2.5H33.18c-3.92,0-6.91,0.91-8.96,2.72c-2.01,1.76-3.01,4.11-3.01,7.05v7.94
	c0,2.94,0.98,5.31,2.94,7.13C26.15,319.76,29.16,320.64,33.18,320.64z M21.35,321.08v3.97h-5.51v-50.99h5.51v18.66
	c0.88-1.27,2.06-2.23,3.53-2.87c1.91-0.83,4.43-1.25,7.57-1.25h14.99c5.29,0,9.31,1.27,12.05,3.82c2.79,2.55,4.19,6.05,4.19,10.51
	v7.94c0,4.6-1.32,8.13-3.97,10.58c-2.64,2.45-6.73,3.67-12.27,3.67H32.45c-2.99,0-5.36-0.39-7.13-1.17
	C24.14,323.41,22.82,322.45,21.35,321.08z"/>
<path class="st2" d="M73.89,310.87c0,6.52,3.85,9.77,11.54,9.77h14.33c3.67,0,6.47-0.73,8.38-2.2c2.11-1.62,3.16-4.14,3.16-7.57
	v-8.01c0-3.14-1-5.54-3.01-7.2c-1.96-1.67-4.8-2.5-8.52-2.5H85.42c-3.92,0-6.83,0.76-8.74,2.28c-1.86,1.52-2.79,4.02-2.79,7.49
	V310.87z M84.91,288.6h15.36c5.88,0,10.21,1.45,13.01,4.33c2.4,2.45,3.6,5.78,3.6,9.99v7.94c0,4.21-1.22,7.54-3.67,9.99
	c-2.84,2.84-7.15,4.26-12.93,4.26H84.91c-11.12,0-16.68-4.75-16.68-14.25v-7.94c0-4.41,1.27-7.84,3.82-10.29
	C74.84,289.95,79.13,288.6,84.91,288.6z"/>
<polygon class="st2" points="161.84,288.75 161.84,292.79 129.51,320.57 161.84,320.57 161.84,325.05 120.69,325.05 120.69,320.93 
	153.09,293.23 120.98,293.23 120.98,288.75 "/>
<path class="st2" d="M183.07,320.57h10.51c2.89,0,5.05-0.64,6.47-1.91c1.08-0.98,1.62-2.08,1.62-3.31h6.02c0,2.45-1,4.58-3.01,6.39
	c-2.45,2.2-5.98,3.31-10.58,3.31h-11.02c-4.36,0-7.69-1.08-9.99-3.23c-2.45-2.3-3.67-5.73-3.67-10.29v-17.49h-4.78v-5.29h4.78v-6.98
	h5.51v6.98h28.73v5.29h-28.73v18.15c0,2.84,0.73,4.95,2.2,6.32C178.64,319.88,180.62,320.57,183.07,320.57z"/>
<path class="st2" d="M242.81,293.16h-17.49c-2.84,0-5.17,0.83-6.98,2.5c-1.81,1.67-2.72,3.85-2.72,6.54h37.47
	c0-2.64-0.93-4.8-2.79-6.47C248.49,294.02,245.99,293.16,242.81,293.16z M226.35,325.05c-10.87,0-16.31-4.53-16.31-13.59v-8.67
	c0-3.92,1.37-7.2,4.11-9.85c2.99-2.89,7.01-4.33,12.05-4.33h16.02c5.24,0,9.33,1.27,12.27,3.82c2.74,2.35,4.11,5.34,4.11,8.96v5.29
	h-42.98v4.12c0,3.48,1,6.02,3.01,7.64c1.76,1.42,4.29,2.13,7.57,2.13h18.15c2.89,0,5.05-0.59,6.47-1.76c1.47-1.22,2.2-2.77,2.2-4.63
	v-0.73h5.58v0.73c0,2.79-0.93,5.17-2.79,7.13c-2.4,2.5-6,3.75-10.8,3.75H226.35z"/>
<path class="st2" d="M269.11,310.87c0,6.52,3.85,9.77,11.54,9.77h14.03c3.67,0,6.47-0.73,8.38-2.2c2.11-1.62,3.16-4.14,3.16-7.57
	v-8.01c0-3.14-1-5.54-3.01-7.2c-1.96-1.67-4.8-2.5-8.52-2.5h-14.03c-3.87,0-6.76,0.76-8.67,2.28c-1.91,1.52-2.87,4.02-2.87,7.49
	V310.87z M280.13,288.6h15.06c5.88,0,10.21,1.45,13.01,4.33c2.4,2.45,3.6,5.78,3.6,9.99v7.94c0,4.21-1.22,7.54-3.67,9.99
	c-2.84,2.84-7.15,4.26-12.93,4.26h-15.06c-4.6,0-8.2-1.1-10.8-3.31v18h-5.51v-51.06h5.51v3.38c1.22-1.13,2.74-1.98,4.56-2.57
	C275.7,288.92,277.78,288.6,280.13,288.6z"/>
<path class="st2" d="M349.35,293.16h-17.49c-2.84,0-5.17,0.83-6.98,2.5c-1.81,1.67-2.72,3.85-2.72,6.54h37.47
	c0-2.64-0.93-4.8-2.79-6.47C355.03,294.02,352.53,293.16,349.35,293.16z M332.89,325.05c-10.87,0-16.31-4.53-16.31-13.59v-8.67
	c0-3.92,1.37-7.2,4.11-9.85c2.99-2.89,7-4.33,12.05-4.33h16.02c5.24,0,9.33,1.27,12.27,3.82c2.74,2.35,4.11,5.34,4.11,8.96v5.29
	h-42.98v4.12c0,3.48,1,6.02,3.01,7.64c1.76,1.42,4.29,2.13,7.57,2.13h18.15c2.89,0,5.05-0.59,6.47-1.76c1.47-1.22,2.2-2.77,2.2-4.63
	v-0.73h5.58v0.73c0,2.79-0.93,5.17-2.79,7.13c-2.4,2.5-6,3.75-10.8,3.75H332.89z"/>
<polygon class="st3" points="120.75,129.09 120.75,152.19 95.6,152.19 95.65,129.09 "/>
</svg>
